<svg xmlns="http://www.w3.org/2000/svg" viewBox="0 0 24 24">
  <defs>
    <linearGradient id="g" x1="0" x2="1" y1="0" y2="1">
      <stop offset="0" stop-color="#5865F2" />
      <stop offset="1" stop-color="#4854d8" />
    </linearGradient>
  </defs>
  <rect width="24" height="24" rx="6" fill="url(#g)" />
  <path fill="#fff" d="M20.317 4.369a19.791 19.791 0 00-4.885-1.515.07.07 0 00-.075.036c-.21.375-.444.864-.608 1.249-1.84-.276-3.68-.276-5.48 0-.164-.397-.418-.874-.63-1.249a.07.07 0 00-.075-.036 19.736 19.736 0 00-4.9 1.515.066.066 0 00-.03.025C2.1 9.09 1.2 13.656 2.9 18.121c.042.09.156.138.25.103 2.046-.86 3.66-1.33 4.35-1.637.36-.17.69.18.57.52-.18.53-.33 1.09-.44 1.655-.04.195.162.354.34.26 3.655-1.87 6.05-1.87 9.67 0 .18.09.39-.068.35-.262-.11-.566-.24-1.13-.42-1.655-.12-.34.21-.69.57-.52.69.307 2.3.776 4.35 1.637.094.034.208-.013.25-.103 1.73-4.463.81-9.03-4.54-13.727a.048.048 0 00-.03-.025zM8.02 15.331c-1.182 0-2.155-1.085-2.155-2.419 0-1.333.95-2.418 2.155-2.418 1.22 0 2.19 1.085 2.155 2.419 0 1.333-.936 2.417-2.155 2.417zm7.96 0c-1.182 0-2.155-1.085-2.155-2.419 0-1.333.95-2.418 2.155-2.418 1.22 0 2.19 1.085 2.155 2.419 0 1.333-.936 2.417-2.155 2.417z"/>
</svg>